<svg width="78" height="45" viewBox="0 0 78 45" fill="none" xmlns="http://www.w3.org/2000/svg">
<path d="M70.449 11.1444C70.449 10.8275 70.5544 10.5634 70.7652 10.3521C70.976 10.1408 71.2394 10.0352 71.5556 10.0352H76.1927C76.4738 10.0352 76.7197 10.1408 76.9304 10.3521C77.1763 10.5634 77.2993 10.8275 77.2993 11.1444V34.7007C77.2993 36.1444 77.0183 37.4824 76.4562 38.7148C75.9292 39.9824 75.2091 41.0739 74.2957 41.9894C73.3823 42.9049 72.2933 43.6268 71.0287 44.1549C69.764 44.7183 68.4291 45 67.0239 45C66.8131 45 66.6023 45 66.3915 45C66.2159 45 66.0227 44.9824 65.8119 44.9472C65.1796 44.8768 64.8634 44.507 64.8634 43.838V39.4542C64.8634 39.1725 64.9512 38.9261 65.1269 38.7148C65.3025 38.5035 65.5309 38.3803 65.8119 38.3451C67.1468 38.0986 68.2534 37.4472 69.1317 36.3908C70.0099 35.3697 70.449 34.1725 70.449 32.7993V11.1444ZM70.449 3.48592C70.449 2.53521 70.7827 1.72535 71.4502 1.05634C72.1177 0.352113 72.9257 0 73.8742 0C74.7875 0 75.5779 0.352113 76.2454 1.05634C76.948 1.72535 77.2993 2.53521 77.2993 3.48592C77.2993 4.40141 76.948 5.19366 76.2454 5.86268C75.5779 6.53169 74.7875 6.8662 73.8742 6.8662C72.9257 6.8662 72.1177 6.53169 71.4502 5.86268C70.7827 5.19366 70.449 4.40141 70.449 3.48592Z" fill="white"/>
<path d="M56.9664 3.52986C56.9664 2.57916 57.2826 1.7693 57.9149 1.10029C58.5824 0.396058 59.3904 0.0439453 60.3389 0.0439453C61.2874 0.0439453 62.0954 0.396058 62.7628 1.10029C63.4303 1.7693 63.764 2.57916 63.764 3.52986C63.764 4.44535 63.4303 5.23761 62.7628 5.90662C62.0954 6.57564 61.2874 6.91014 60.3389 6.91014C59.3904 6.91014 58.5824 6.57564 57.9149 5.90662C57.2826 5.23761 56.9664 4.44535 56.9664 3.52986ZM63.764 33.8996C63.764 34.2165 63.6586 34.4806 63.4478 34.6918C63.2371 34.9031 62.9736 35.0087 62.6574 35.0087H58.073C57.7569 35.0087 57.4934 34.9031 57.2826 34.6918C57.0718 34.4806 56.9664 34.2165 56.9664 33.8996V11.1883C56.9664 10.8714 57.0718 10.6073 57.2826 10.3961C57.4934 10.1848 57.7569 10.0792 58.073 10.0792H62.6574C62.9736 10.0792 63.2371 10.1848 63.4478 10.3961C63.6586 10.6073 63.764 10.8714 63.764 11.1883V33.8996Z" fill="white"/>
<path d="M17.9175 22.5439C17.9175 23.3186 18.0581 24.058 18.3391 24.7623C18.6553 25.4313 19.0593 26.0123 19.5511 26.5052C20.078 26.9982 20.6752 27.4031 21.3427 27.72C22.0101 28.0017 22.7303 28.1425 23.5032 28.1425C24.276 28.1425 24.9962 28.0017 25.6636 27.72C26.3662 27.4031 26.9634 26.9982 27.4552 26.5052C27.9822 26.0123 28.3862 25.4313 28.6672 24.7623C28.9834 24.058 29.1415 23.3186 29.1415 22.5439C29.1415 21.7693 28.9834 21.0475 28.6672 20.3785C28.3862 19.6742 27.9822 19.0756 27.4552 18.5827C26.9634 18.0897 26.3662 17.7024 25.6636 17.4207C24.9962 17.1038 24.276 16.9454 23.5032 16.9454C22.7303 16.9454 22.0101 17.1038 21.3427 17.4207C20.6752 17.7024 20.078 18.0897 19.5511 18.5827C19.0593 19.0756 18.6553 19.6742 18.3391 20.3785C18.0581 21.0475 17.9175 21.7693 17.9175 22.5439ZM16.811 0.0439453C17.1271 0.0439453 17.3906 0.167185 17.6014 0.413665C17.8122 0.624932 17.9175 0.871411 17.9175 1.1531V10.5017C17.9175 10.713 17.9702 10.889 18.0756 11.0299C18.2161 11.1707 18.3742 11.2059 18.5499 11.1355C20.1658 10.4313 21.8345 10.0792 23.5558 10.0792C25.2772 10.0792 26.8932 10.4137 28.4037 11.0827C29.9143 11.7165 31.2317 12.5968 32.3558 13.7235C33.48 14.8503 34.3582 16.1707 34.9905 17.6848C35.658 19.1989 35.9917 20.801 35.9917 22.4911C35.9917 24.2165 35.658 25.8362 34.9905 27.3503C34.3582 28.8644 33.48 30.2024 32.3558 31.3644C31.2317 32.4911 29.9143 33.389 28.4037 34.058C26.8932 34.6918 25.2772 35.0087 23.5558 35.0087C21.8345 35.0087 20.2185 34.6918 18.708 34.058C17.1974 33.389 15.8625 32.4911 14.7032 31.3644C13.579 30.2024 12.6832 28.8644 12.0158 27.3503C11.3834 25.8362 11.0673 24.2165 11.0673 22.4911V1.1531C11.0673 0.871411 11.1726 0.624932 11.3834 0.413665C11.6293 0.167185 11.8928 0.0439453 12.1738 0.0439453H16.811Z" fill="white"/>
<path d="M47.0938 33.914C47.0938 34.2309 46.9884 34.495 46.7776 34.7062C46.5669 34.9175 46.3034 35.0231 45.9872 35.0231H41.3501C41.0339 35.0231 40.7705 34.9175 40.5597 34.7062C40.3489 34.495 40.2435 34.2309 40.2435 33.914V20.3929C40.2435 18.9844 40.507 17.6464 41.034 16.3788C41.596 15.1112 42.3337 14.0196 43.2471 13.1041C44.1605 12.1886 45.2319 11.4668 46.4615 10.9386C47.7261 10.3753 49.0786 10.0936 50.5189 10.0936C50.6946 10.0936 50.8878 10.0936 51.0986 10.0936C51.3094 10.0936 51.5201 10.1112 51.7309 10.1464C52.012 10.1816 52.2403 10.3048 52.416 10.5161C52.5916 10.7274 52.6794 10.9738 52.6794 11.2555V15.6393C52.6794 15.921 52.5916 16.1675 52.416 16.3788C52.2403 16.59 52.012 16.7133 51.7309 16.7485C50.396 16.995 49.2894 17.6464 48.4112 18.7027C47.5329 19.7238 47.0938 20.921 47.0938 22.2943V33.914Z" fill="white"/>
<circle cx="2.97961" cy="11.196" r="2.97961" fill="#F9AB10"/>
<circle cx="2.97961" cy="23.9659" r="2.97961" fill="#F9AB10"/>
</svg>
