<svg width="64" height="38" viewBox="0 0 64 38" fill="none" xmlns="http://www.w3.org/2000/svg">
<path d="M58.3287 9.22696C58.3287 8.96459 58.416 8.74594 58.5905 8.57102C58.765 8.3961 58.9831 8.30864 59.2449 8.30864H63.0842C63.3169 8.30864 63.5205 8.3961 63.695 8.57102C63.8986 8.74594 64.0004 8.96459 64.0004 9.22696V28.7304C64.0004 29.9257 63.7677 31.0335 63.3023 32.0539C62.866 33.1034 62.2698 34.0071 61.5136 34.7651C60.7573 35.5231 59.8557 36.1207 58.8086 36.558C57.7615 37.0245 56.6563 37.2577 55.4929 37.2577C55.3183 37.2577 55.1438 37.2577 54.9693 37.2577C54.8239 37.2577 54.6639 37.2431 54.4894 37.214C53.9659 37.1557 53.7041 36.8495 53.7041 36.2956V32.6661C53.7041 32.4329 53.7768 32.2288 53.9222 32.0539C54.0677 31.8789 54.2567 31.7769 54.4894 31.7478C55.5947 31.5437 56.5109 31.0043 57.238 30.1298C57.9651 29.2843 58.3287 28.2931 58.3287 27.1561V9.22696ZM58.3287 2.88616C58.3287 2.09903 58.605 1.4285 59.1576 0.874595C59.7103 0.291532 60.3792 0 61.1645 0C61.9208 0 62.5752 0.291532 63.1278 0.874595C63.7095 1.4285 64.0004 2.09903 64.0004 2.88616C64.0004 3.64414 63.7095 4.30009 63.1278 4.854C62.5752 5.40791 61.9208 5.68486 61.1645 5.68486C60.3792 5.68486 59.7103 5.40791 59.1576 4.854C58.605 4.30009 58.3287 3.64414 58.3287 2.88616Z" fill="#063941"/>
<path d="M47.165 2.92229C47.165 2.13516 47.4268 1.46464 47.9504 0.910728C48.503 0.327664 49.1719 0.0361328 49.9573 0.0361328C50.7426 0.0361328 51.4115 0.327664 51.9642 0.910728C52.5168 1.46464 52.7931 2.13516 52.7931 2.92229C52.7931 3.68027 52.5168 4.33622 51.9642 4.89013C51.4115 5.44404 50.7426 5.72099 49.9573 5.72099C49.1719 5.72099 48.503 5.44404 47.9504 4.89013C47.4268 4.33622 47.165 3.68027 47.165 2.92229ZM52.7931 28.0669C52.7931 28.3292 52.7058 28.5479 52.5313 28.7228C52.3568 28.8977 52.1387 28.9852 51.8769 28.9852H48.0812C47.8195 28.9852 47.6013 28.8977 47.4268 28.7228C47.2523 28.5479 47.165 28.3292 47.165 28.0669V9.2631C47.165 9.00072 47.2523 8.78207 47.4268 8.60715C47.6013 8.43223 47.8195 8.34477 48.0812 8.34477H51.8769C52.1387 8.34477 52.3568 8.43223 52.5313 8.60715C52.7058 8.78207 52.7931 9.00072 52.7931 9.2631V28.0669Z" fill="#063941"/>
<path d="M14.8348 18.665C14.8348 19.3063 14.9511 19.9186 15.1838 20.5016C15.4456 21.0555 15.78 21.5366 16.1872 21.9447C16.6235 22.3528 17.118 22.6881 17.6706 22.9505C18.2232 23.1837 18.8195 23.3003 19.4594 23.3003C20.0992 23.3003 20.6955 23.1837 21.2481 22.9505C21.8298 22.6881 22.3243 22.3528 22.7315 21.9447C23.1678 21.5366 23.5023 21.0555 23.7349 20.5016C23.9967 19.9186 24.1276 19.3063 24.1276 18.665C24.1276 18.0236 23.9967 17.426 23.7349 16.8721C23.5023 16.289 23.1678 15.7934 22.7315 15.3853C22.3243 14.9771 21.8298 14.6564 21.2481 14.4232C20.6955 14.1608 20.0992 14.0296 19.4594 14.0296C18.8195 14.0296 18.2232 14.1608 17.6706 14.4232C17.118 14.6564 16.6235 14.9771 16.1872 15.3853C15.78 15.7934 15.4456 16.289 15.1838 16.8721C14.9511 17.426 14.8348 18.0236 14.8348 18.665ZM13.9186 0.0361328C14.1803 0.0361328 14.3985 0.138169 14.573 0.342242C14.7475 0.51716 14.8348 0.721232 14.8348 0.954457V8.69461C14.8348 8.86953 14.8784 9.0153 14.9657 9.13191C15.082 9.24852 15.2129 9.27767 15.3583 9.21937C16.6962 8.6363 18.0778 8.34477 19.503 8.34477C20.9282 8.34477 22.2661 8.62173 23.5168 9.17564C24.7675 9.7004 25.8582 10.4292 26.7889 11.3621C27.7197 12.295 28.4468 13.3883 28.9703 14.6418C29.523 15.8954 29.7993 17.2219 29.7993 18.6212C29.7993 20.0498 29.523 21.3908 28.9703 22.6444C28.4468 23.898 27.7197 25.0058 26.7889 25.9678C25.8582 26.9007 24.7675 27.6441 23.5168 28.198C22.2661 28.7228 20.9282 28.9852 19.503 28.9852C18.0778 28.9852 16.7399 28.7228 15.4892 28.198C14.2385 27.6441 13.1333 26.9007 12.1734 25.9678C11.2427 25.0058 10.501 23.898 9.9484 22.6444C9.42486 21.3908 9.16309 20.0498 9.16309 18.6212V0.954457C9.16309 0.721232 9.25034 0.51716 9.42486 0.342242C9.62845 0.138169 9.8466 0.0361328 10.0793 0.0361328H13.9186Z" fill="#063941"/>
<path d="M38.991 28.079C38.991 28.3414 38.9038 28.56 38.7292 28.735C38.5547 28.9099 38.3366 28.9973 38.0748 28.9973H34.2355C33.9738 28.9973 33.7556 28.9099 33.5811 28.735C33.4066 28.56 33.3193 28.3414 33.3193 28.079V16.8842C33.3193 15.7181 33.5375 14.6103 33.9738 13.5608C34.4391 12.5113 35.0499 11.6075 35.8062 10.8495C36.5624 10.0915 37.4495 9.49391 38.4675 9.05661C39.5146 8.59016 40.6344 8.35693 41.8269 8.35693C41.9723 8.35693 42.1323 8.35693 42.3068 8.35693C42.4813 8.35693 42.6558 8.37151 42.8303 8.40066C43.063 8.42982 43.2521 8.53185 43.3975 8.70677C43.5429 8.88169 43.6156 9.08576 43.6156 9.31899V12.9486C43.6156 13.1818 43.5429 13.3858 43.3975 13.5608C43.2521 13.7357 43.063 13.8377 42.8303 13.8669C41.7251 14.0709 40.8089 14.6103 40.0817 15.4849C39.3546 16.3303 38.991 17.3215 38.991 18.4585V28.079Z" fill="#063941"/>
<circle cx="2.46696" cy="9.2697" r="2.46696" fill="#063941"/>
<circle cx="2.46696" cy="19.8424" r="2.46696" fill="#063941"/>
</svg>
